<svg xmlns="http://www.w3.org/2000/svg" viewBox="0 0 6324.95 1314.81"><defs><style>.cls-1{fill:#fff;}.cls-2{fill:#9a34e8;}</style></defs><g id="Warstwa_2" data-name="Warstwa 2"><g id="Warstwa_1-2" data-name="Warstwa 1"><path class="cls-1" d="M1874.3,516.51q30.45-32,71.7-32l458.85.38V589l-455.5-.38-20.81,23v20.81l20.81,23H2283q41.24,0,71.71,31.58l24.89,27.87q24.88,27.5,25.26,64.64l-.37,25.27q-.37,36.78-24.89,64.65-4.46,5.21-11.15,12.63t-11.89,13a12.2,12.2,0,0,1-1.48,1.86q-30.86,32-72.08,31.95l-458.48.37v-104l455.13-.37,20.81-23V782.53l-20.81-23H1946q-40.87,0-71.7-32l-24.9-27.49q-24.89-27.87-24.89-65V608.65q.36-37.15,24.89-64.65Z"/><path class="cls-1" d="M3024.21,517.62l24.89,27.49q24.53,27.87,24.89,65l-.37,37.16q-.37,36.78-24.52,64.64l-24.89,27.5q-30.86,32-72.08,32H2568.7v30.47l20.81,23H3022v104H2586.16q-41.23,0-72.07-31.95l-24.9-27.49q-24.15-27.87-24.52-64.65l-.37-195.06q.36-36.78,24.89-64.65l24.9-27.49q30.82-32,71.7-31.95H2952.5Q2993.36,485.67,3024.21,517.62Zm-54.62,126.7V612.73l-20.43-23h-360l-20.44,23v54.62h380.08Z"/><path class="cls-1" d="M3610.49,673.67V484.18h104V677q0,40.88-31.58,71.71L3511.29,904.39q-29,24.9-65,24.89h-44.58q-36,0-65-24.89L3165,748.72q-31.59-30.84-31.58-71.71V484.18h104V673.67l167.19,151.58h38.64Z"/><path class="cls-1" d="M4333.88,517.62l24.89,27.49q24.52,27.87,24.89,65l-.37,37.16q-.37,36.78-24.52,64.64l-24.89,27.5q-30.85,32-72.08,32H3878.37v30.47l20.81,23h432.47v104H3895.83q-41.23,0-72.07-31.95l-24.9-27.49q-24.15-27.87-24.52-64.65L3774,609.76q.36-36.78,24.89-64.65l24.9-27.49q30.82-32,71.7-31.95h366.71Q4303,485.67,4333.88,517.62Zm-54.62,126.7V612.73l-20.43-23h-360l-20.44,23v54.62h380.08Z"/><path class="cls-1" d="M4893.41,531.74l100.69,96.6q29.71,30.46,29.72,69.48V928.91h-104.4V701.16l-98.09-94q-20.06-18.57-45.7-18.58H4547.14V928.91h-104V581.15q0-40.12,28.24-68.36t68.36-28.24h235.92Q4841.77,484.55,4893.41,531.74Z"/><path class="cls-1" d="M5553.26,512.05l39,38.64q28.6,29.35,28.61,68.36v52.76h-104.4V622l-34.55-33.81H5208.1l-20.8,23V810.76H5444V915.17H5187.3v244.1h-104v-551q.36-36.79,24.89-64.65l24.89-27.5q30.84-32,71.71-31.95h280.51Q5523.54,484.18,5553.26,512.05Z"/><path class="cls-1" d="M5784.36,455.2h-104V365.29h104Zm0,473.71h-104V484.18h104Z"/><path class="cls-1" d="M6197.51,824.51l52-54.62L6325,841.6l-53.13,55.73q-30.48,31.21-71,31.21H5965.3q-17.1,0-30.47-5.39a123.87,123.87,0,0,1-35.66-21.36,180.05,180.05,0,0,1-18.58-18.2A204.36,204.36,0,0,1,5865,864.27q-21.16-29.73-21.17-59.82V367.52h104V483.44h120.75v104.4H5947.84V801.1l21.17,23Z"/><path class="cls-2" d="M606.29,1305.46l-58.11-103.25a18.31,18.31,0,0,1,0-18L1118.71,173.67a18.37,18.37,0,0,0,0-18l-4.65-8.22a18.37,18.37,0,0,0-16-9.33h-897A18.37,18.37,0,0,0,185.35,147l-23.5,39.17a18.35,18.35,0,0,0-.34,18.29l239.6,435.38a18.36,18.36,0,0,0,32.2-.08L574.13,381.1a18.38,18.38,0,0,1,16.06-9.58l112.43-.37a18.35,18.35,0,0,1,16.22,27.05l-283,525.69a20.48,20.48,0,0,1-35.93.09L2.27,201.48a18.35,18.35,0,0,1,.35-18.3L107.18,8.91A18.35,18.35,0,0,1,122.92,0H1178.64a18.34,18.34,0,0,1,16,9.32l82.68,146.27a18.37,18.37,0,0,1,0,18l-639,1131.84A18.36,18.36,0,0,1,606.29,1305.46Z"/></g></g></svg>