<svg xmlns="http://www.w3.org/2000/svg" viewBox="0 0 5047.51 2784.62"><defs><style>.cls-1{fill:#fff;}.cls-2{fill:#9a34e8;}</style></defs><g id="Warstwa_2" data-name="Warstwa 2"><g id="Warstwa_1-2" data-name="Warstwa 1"><path class="cls-1" d="M55.84,2063.73q34.16-35.84,80.42-35.84l514.63.42V2145L140,2144.57l-23.33,25.83v23.34L140,2219.57h374.2q46.26,0,80.42,35.42l27.92,31.26q27.91,30.84,28.34,72.5l-.42,28.34q-.42,41.25-27.92,72.5-5,5.85-12.5,14.17t-13.33,14.59a14.13,14.13,0,0,1-1.67,2.08q-34.59,35.84-80.84,35.84L0,2526.68V2410l510.46-.42,23.33-25.84v-21.66l-23.33-25.84H136.26q-45.84,0-80.42-35.84l-27.92-30.83Q0,2238.32,0,2196.65v-29.58q.41-41.67,27.92-72.51Z"/><path class="cls-1" d="M1345.53,2065l27.92,30.83q27.51,31.26,27.92,72.93l-.42,41.67q-.42,41.25-27.5,72.5l-27.92,30.84q-34.59,35.84-80.84,35.83h-430v34.17L858,2409.59h485v116.68H854.24q-46.26,0-80.84-35.84l-27.92-30.84q-27.09-31.24-27.5-72.5l-.42-218.77q.41-41.25,27.92-72.51L773.4,2065q34.59-35.84,80.42-35.84h411.29Q1310.94,2029.14,1345.53,2065Zm-61.25,142.09v-35.42l-22.92-25.83H857.57l-22.92,25.83v61.26h426.29Z"/><path class="cls-1" d="M2003.09,2240V2027.47h116.67v216.27q0,45.84-35.42,80.43l-192.51,174.59q-32.5,27.93-72.93,27.92h-50q-40.43,0-72.92-27.92l-192.52-174.59q-35.42-34.59-35.42-80.43V2027.47h116.68V2240l187.51,170h43.34Z"/><path class="cls-1" d="M2814.4,2065l27.92,30.83q27.51,31.26,27.92,72.93l-.41,41.67q-.42,41.25-27.51,72.5l-27.92,30.84q-34.59,35.84-80.84,35.83h-430v34.17l23.33,25.84h485v116.68H2323.11q-46.24,0-80.84-35.84l-27.92-30.84q-27.09-31.24-27.5-72.5l-.41-218.77q.41-41.25,27.91-72.51l27.92-30.83q34.59-35.84,80.43-35.84H2734Q2779.82,2029.14,2814.4,2065Zm-61.25,142.09v-35.42l-22.92-25.83H2326.45l-22.92,25.83v61.26h426.28Z"/><path class="cls-1" d="M3442,2080.81l112.92,108.34q33.35,34.18,33.34,77.93v259.19H3471.13V2270.83l-110-105.43q-22.5-20.83-51.26-20.83H3053.59v381.7H2936.92v-390q0-45,31.67-76.67t76.67-31.67h264.6Q3384,2027.89,3442,2080.81Z"/><path class="cls-1" d="M4182,2058.73l43.76,43.33q32.07,32.93,32.08,76.68v59.17H4140.77v-55.84L4102,2144.15H3794.9L3771.57,2170v223.76h287.94v117.1H3771.57v273.77H3654.89v-618q.42-41.25,27.92-72.5l27.92-30.84q34.59-35.83,80.42-35.84h314.62Q4148.67,2027.47,4182,2058.73Z"/><path class="cls-1" d="M4441.21,1995H4324.53V1894.13h116.68Zm0,531.3H4324.53v-498.8h116.68Z"/><path class="cls-1" d="M4904.58,2409.17l58.34-61.25,84.59,80.42-59.59,62.51q-34.17,35-79.59,35H4644.14q-19.17,0-34.17-6a139.73,139.73,0,0,1-40-24,203.24,203.24,0,0,1-20.84-20.42,230.88,230.88,0,0,1-17.5-21.67q-23.74-33.33-23.75-67.09v-490h116.68v130H4760v117.09H4624.56v239.19l23.75,25.84Z"/><path class="cls-2" d="M2430.63,1464.15l-65.18-115.79a20.6,20.6,0,0,1,0-20.22L3005.34,194.78a20.58,20.58,0,0,0,0-20.25l-5.22-9.22a20.57,20.57,0,0,0-17.92-10.45h-1006a20.59,20.59,0,0,0-17.65,10l-26.36,43.93a20.6,20.6,0,0,0-.38,20.52l268.73,488.29a20.58,20.58,0,0,0,36.11-.08l157.94-290.08a20.57,20.57,0,0,1,18-10.74l126.1-.43a20.58,20.58,0,0,1,18.19,30.34l-317.42,589.6a23,23,0,0,1-40.3.09L1753.19,226a20.6,20.6,0,0,1,.38-20.52L1870.85,10A20.58,20.58,0,0,1,1888.5,0H3072.55a20.57,20.57,0,0,1,17.92,10.46l92.72,164a20.58,20.58,0,0,1,0,20.25L2466.49,1464.18A20.58,20.58,0,0,1,2430.63,1464.15Z"/></g></g></svg>