<svg xmlns="http://www.w3.org/2000/svg" viewBox="0 0 2649.29 2722.06"><defs><style>.cls-1{fill:#9a34e8;}</style></defs><g id="Warstwa_2" data-name="Warstwa 2"><g id="Warstwa_1-2" data-name="Warstwa 1"><path class="cls-1" d="M1255.21,2702.7,1134.89,2489a38,38,0,0,1,0-37.32L2316.07,359.55a38,38,0,0,0,0-37.38l-9.62-17a38,38,0,0,0-33.08-19.3h-1857a38,38,0,0,0-32.58,18.45l-48.66,81.09a38,38,0,0,0-.71,37.87l496.05,901.35c14.47,26.31,52.3,26.22,66.66-.15L1188.62,789a38,38,0,0,1,33.24-19.83l232.78-.79c28.8-.09,47.24,30.65,33.58,56L902.28,1912.74c-16,29.43-58.24,29.52-74.39.17L4.71,417.12a38,38,0,0,1,.7-37.87L221.89,18.45A38,38,0,0,1,254.47,0H2440.13a38,38,0,0,1,33.08,19.3l171.16,302.81a38,38,0,0,1,0,37.38l-1323,2343.26C1306.86,2728.52,1269.73,2728.5,1255.21,2702.7Z"/></g></g></svg>