<svg width="20" height="20" viewBox="0 0 20 20" fill="none" xmlns="http://www.w3.org/2000/svg">
<g clip-path="url(#clip0_409_77)">
<mask id="mask0_409_77" style="mask-type:luminance" maskUnits="userSpaceOnUse" x="0" y="0" width="20" height="20">
<path d="M19.1239 0.718994H0.561935V19.2809H19.1239V0.718994Z" fill="white"/>
</mask>
<g mask="url(#mask0_409_77)">
<path d="M9.8429 2.39112C12.3209 2.39112 12.6148 2.4004 13.5932 2.44525C14.6048 2.49166 15.6466 2.72213 16.3837 3.4592C17.1277 4.20322 17.3512 5.23495 17.3976 6.24969C17.4425 7.22803 17.4517 7.52194 17.4517 9.99996C17.4517 12.478 17.4425 12.7719 17.3976 13.7502C17.352 14.7565 17.1161 15.8083 16.3837 16.5407C15.6396 17.2848 14.6087 17.5083 13.5932 17.5547C12.6148 17.5995 12.3209 17.6088 9.8429 17.6088C7.36488 17.6088 7.07097 17.5995 6.09263 17.5547C5.09413 17.509 4.02838 17.2677 3.30214 16.5407C2.56198 15.8006 2.3346 14.7588 2.2882 13.7502C2.24334 12.7719 2.23406 12.478 2.23406 9.99996C2.23406 7.52194 2.24334 7.22803 2.2882 6.24969C2.33383 5.24734 2.57204 4.1893 3.30214 3.4592C4.04462 2.71672 5.08021 2.49166 6.09263 2.44525C7.07097 2.4004 7.36488 2.39112 9.8429 2.39112ZM9.8429 0.718994C7.32236 0.718994 7.00601 0.729822 6.01606 0.77468C4.58136 0.84042 3.15674 1.2395 2.11959 2.27665C1.07858 3.31766 0.683361 4.73921 0.617621 6.17312C0.572763 7.16307 0.561935 7.47942 0.561935 9.99996C0.561935 12.5205 0.572763 12.8369 0.617621 13.8268C0.683361 15.2599 1.08399 16.6885 2.11959 17.7233C3.15983 18.7635 4.58368 19.1595 6.01606 19.2252C7.00601 19.2701 7.32236 19.2809 9.8429 19.2809C12.3634 19.2809 12.6798 19.2701 13.6697 19.2252C15.1037 19.1595 16.5298 18.7596 17.5662 17.7233C18.608 16.6815 19.0025 15.2607 19.0682 13.8268C19.113 12.8369 19.1239 12.5205 19.1239 9.99996C19.1239 7.47942 19.113 7.16307 19.0682 6.17312C19.0025 4.73841 18.6026 3.31302 17.5662 2.27665C16.5275 1.23796 15.0998 0.839647 13.6697 0.77468C12.6798 0.729822 12.3634 0.718994 9.8429 0.718994Z" fill="white"/>
<path d="M9.8429 5.23413C7.21099 5.23413 5.07713 7.36799 5.07713 9.99991C5.07713 12.6318 7.21099 14.7657 9.8429 14.7657C12.4748 14.7657 14.6087 12.6318 14.6087 9.99991C14.6087 7.36799 12.4748 5.23413 9.8429 5.23413ZM9.8429 13.0936C8.13444 13.0936 6.74926 11.7084 6.74926 9.99991C6.74926 8.29145 8.13444 6.90626 9.8429 6.90626C11.5514 6.90626 12.9365 8.29145 12.9365 9.99991C12.9365 11.7084 11.5514 13.0936 9.8429 13.0936Z" fill="white"/>
<path d="M14.7974 6.15908C15.4125 6.15908 15.9111 5.66045 15.9111 5.04537C15.9111 4.43025 15.4125 3.93164 14.7974 3.93164C14.1823 3.93164 13.6837 4.43025 13.6837 5.04537C13.6837 5.66045 14.1823 6.15908 14.7974 6.15908Z" fill="white"/>
</g>
</g>
<defs>
<clipPath id="clip0_409_77">
<rect width="18.5619" height="18.5619" fill="white" transform="translate(0.561935 0.718994)"/>
</clipPath>
</defs>
</svg>
